<svg xmlns="http://www.w3.org/2000/svg" xmlns:xlink="http://www.w3.org/1999/xlink" version="1.1" width="256" height="256" viewBox="0 0 256 256" xml:space="preserve">

<defs>
</defs>
<g style="stroke: black; stroke-width: 2; fill: none;" transform="translate(1.4065934065934016 1.4065934065934016) scale(2.81 2.81)" >
	<path d="M 0 78.514 c 12.106 6.914 20.778 8.441 29.153 0.069 c 3.396 -3.396 3.396 -8.922 0 -12.318 c -3.396 -3.395 -8.922 -3.394 -12.318 0 l 0 0 C 10.045 73.054 5.72 76.869 0 78.514 z" style="stroke-width: 2; fill: black;" />
	<path d="M 27.65 59.958 c 1.771 0.661 3.402 1.695 4.758 3.052 l 0 0 c 1.478 1.477 2.566 3.255 3.212 5.183 L 89.377 9.664 c 0.857 -0.935 0.827 -2.37 -0.07 -3.267 c -0.898 -0.898 -2.335 -0.926 -3.268 -0.069 L 27.65 59.958 z" style="stroke-width: 2; fill: black;" />
</g>
</svg>
