<svg xmlns="http://www.w3.org/2000/svg" xmlns:xlink="http://www.w3.org/1999/xlink" version="1.1" width="256" height="256" viewBox="0 0 256 256" xml:space="preserve">

<defs>
</defs>
<g style="stroke: none; stroke-width: 0; stroke-dasharray: none; stroke-linecap: butt; stroke-linejoin: miter; stroke-miterlimit: 10; fill: none; fill-rule: nonzero; opacity: 1;" transform="translate(1.4065934065934016 1.4065934065934016) scale(2.81 2.81)" >
	<path d="M 89.959 35.336 c 0.216 -2.191 -0.436 -4.336 -1.832 -6.038 L 68.81 5.763 c -1.396 -1.703 -3.373 -2.759 -5.565 -2.975 c -2.188 -0.214 -4.337 0.435 -6.039 1.833 L 3.015 49.098 c -1.703 1.397 -2.759 3.374 -2.975 5.565 C -0.175 56.855 0.475 59 1.873 60.702 L 21.19 84.238 c 1.397 1.702 3.374 2.759 5.566 2.975 c 0.275 0.027 0.549 0.04 0.822 0.04 c 0.086 0 0.17 -0.008 0.256 -0.011 c 0.037 0.001 0.071 0.011 0.109 0.011 h 58.645 c 1.657 0 3 -1.343 3 -3 c 0 -1.657 -1.343 -3 -3 -3 H 37.824 l 12.489 -10.25 l 0 0 l 36.673 -30.1 C 88.687 39.505 89.744 37.528 89.959 35.336 z M 6.51 56.895 c -0.38 -0.464 -0.558 -1.048 -0.499 -1.645 s 0.347 -1.135 0.81 -1.515 l 12.881 -10.572 L 41.868 70.17 l -12.88 10.571 c -0.119 0.098 -0.246 0.182 -0.378 0.251 c -0.004 0.002 -0.009 0.003 -0.013 0.005 c -0.494 0.256 -1.056 0.308 -1.578 0.178 c -0.033 -0.008 -0.068 -0.01 -0.1 -0.02 c -0.118 -0.035 -0.233 -0.085 -0.344 -0.14 c -0.019 -0.009 -0.04 -0.014 -0.058 -0.024 c -0.106 -0.056 -0.205 -0.126 -0.302 -0.199 c -0.021 -0.016 -0.046 -0.028 -0.067 -0.045 c -0.115 -0.093 -0.222 -0.199 -0.32 -0.318 L 6.51 56.895 z" style="stroke: none; stroke-width: 1; stroke-dasharray: none; stroke-linecap: butt; stroke-linejoin: miter; stroke-miterlimit: 10; fill: rgb(0,0,0); fill-rule: nonzero; opacity: 1;" transform=" matrix(1 0 0 1 0 0) " stroke-linecap="round" />
</g>
</svg>